# Blender 4.5.1 LTS
# www.blender.org
mtllib sea_container.mtl
o House_01
v -1.258795 1.989814 -1.417384
v -1.258795 0.122777 -1.417384
v 0.579263 1.989814 -1.417384
v 0.579263 0.122777 -1.417384
v -1.258795 1.989814 2.713286
v -1.258795 0.122777 2.713286
v 0.579263 1.989814 2.713286
v 0.579263 0.122777 2.713286
v 0.579263 0.375143 -1.291201
v 0.579263 1.737449 -1.291201
v 0.579263 1.737449 2.587103
v 0.579263 0.375143 2.587103
v 0.453080 0.375143 2.713286
v 0.453080 1.737449 2.713286
v -1.132612 1.737449 2.713286
v -1.132612 0.375143 2.713286
v -1.132612 0.375143 -1.417384
v -1.132612 1.737449 -1.417384
v 0.453080 1.737449 -1.417384
v 0.453080 0.375143 -1.417384
v -1.258795 0.375143 2.587103
v -1.258795 1.737449 2.587103
v -1.258795 1.737449 -1.291201
v -1.258795 0.375143 -1.291201
v 0.453080 1.989814 -1.291201
v -1.132612 1.989814 -1.291201
v -1.132612 1.989814 2.587103
v 0.453080 1.989814 2.587103
v 0.445085 0.375143 -1.291201
v 0.445085 1.737449 -1.291201
v 0.445085 1.737449 2.587103
v 0.445085 0.375143 2.587103
v 0.453080 0.375143 2.579108
v 0.453080 1.737449 2.579108
v -1.132612 1.737449 2.579108
v -1.132612 0.375143 2.579108
v -1.132612 0.375143 -1.283206
v -1.132612 1.737449 -1.283206
v 0.453080 1.737449 -1.283206
v 0.453080 0.375143 -1.283206
v -1.124617 0.375143 2.587103
v -1.124617 1.737449 2.587103
v -1.124617 1.737449 -1.291201
v -1.124617 0.375143 -1.291201
v 0.453080 1.855636 -1.291201
v -1.132612 1.855636 -1.291201
v -1.132612 1.855636 2.587103
v 0.453080 1.855636 2.587103
v -1.258795 0.122777 -0.902881
v -1.258795 0.122777 -0.751695
v -1.258795 0.122777 -0.311521
v -1.258795 0.122777 -0.162864
v -1.258795 0.122777 0.279364
v -1.258795 0.122777 0.426443
v -1.258795 0.122777 0.869460
v -1.258795 0.122777 1.016538
v -1.258795 0.122777 1.458766
v -1.258795 0.122777 1.607423
v -1.258795 0.122777 2.047598
v -1.258795 0.122777 2.198783
v 0.579263 1.989814 -0.750684
v 0.579263 1.989814 -0.903892
v 0.579263 1.989814 -0.162385
v 0.579263 1.989814 -0.312000
v 0.579263 1.989814 0.426505
v 0.579263 1.989814 0.279301
v 0.579263 1.989814 1.016601
v 0.579263 1.989814 0.869397
v 0.579263 1.989814 1.607902
v 0.579263 1.989814 1.458287
v 0.579263 1.989814 2.199794
v 0.579263 1.989814 2.046587
v 0.579263 0.122777 2.198783
v 0.579263 0.122777 2.047598
v 0.579263 0.122777 1.607423
v 0.579263 0.122777 1.458766
v 0.579263 0.122777 1.016538
v 0.579263 0.122777 0.869460
v 0.579263 0.122777 0.426442
v 0.579263 0.122777 0.279364
v 0.579263 0.122777 -0.162864
v 0.579263 0.122777 -0.311521
v 0.579263 0.122777 -0.751696
v 0.579263 0.122777 -0.902881
v -1.258795 1.989814 2.046587
v -1.258795 1.989814 2.199794
v -1.258795 1.989814 1.458287
v -1.258795 1.989814 1.607902
v -1.258795 1.989814 0.869397
v -1.258795 1.989814 1.016601
v -1.258795 1.989814 0.279301
v -1.258795 1.989814 0.426505
v -1.258795 1.989814 -0.312000
v -1.258795 1.989814 -0.162385
v -1.258795 1.989814 -0.903892
v -1.258795 1.989814 -0.750685
v 0.579263 0.375143 2.108655
v 0.579263 0.375143 1.957465
v 0.579263 0.375143 1.553351
v 0.579263 0.375143 1.404681
v 0.579263 0.375143 0.998513
v 0.579263 0.375143 0.851432
v 0.579263 0.375143 0.444470
v 0.579263 0.375143 0.297389
v 0.579263 0.375143 -0.108779
v 0.579263 0.375143 -0.257449
v 0.579263 0.375143 -0.661563
v 0.579263 0.375143 -0.812752
v 0.579263 1.737449 -0.813300
v 0.579263 1.737449 -0.661015
v 0.579263 1.737449 -0.257717
v 0.579263 1.737449 -0.108511
v 0.579263 1.737449 0.297353
v 0.579263 1.737449 0.444505
v 0.579263 1.737449 0.851397
v 0.579263 1.737449 0.998549
v 0.579263 1.737449 1.404413
v 0.579263 1.737449 1.553619
v 0.579263 1.737449 1.956917
v 0.579263 1.737449 2.109202
v -1.258795 0.375143 -0.812752
v -1.258795 0.375143 -0.661563
v -1.258795 0.375143 -0.257449
v -1.258795 0.375143 -0.108779
v -1.258795 0.375143 0.297389
v -1.258795 0.375143 0.444470
v -1.258795 0.375143 0.851433
v -1.258795 0.375143 0.998513
v -1.258795 0.375143 1.404681
v -1.258795 0.375143 1.553351
v -1.258795 0.375143 1.957465
v -1.258795 0.375143 2.108655
v -1.258795 1.737449 2.109202
v -1.258795 1.737449 1.956917
v -1.258795 1.737449 1.553619
v -1.258795 1.737449 1.404413
v -1.258795 1.737449 0.998549
v -1.258795 1.737449 0.851397
v -1.258795 1.737449 0.444505
v -1.258795 1.737449 0.297353
v -1.258795 1.737449 -0.108511
v -1.258795 1.737449 -0.257717
v -1.258795 1.737449 -0.661015
v -1.258795 1.737449 -0.813300
v 0.453080 1.989814 -0.660555
v 0.453080 1.989814 -0.813760
v 0.453080 1.989814 -0.108292
v 0.453080 1.989814 -0.257936
v 0.453080 1.989814 0.444534
v 0.453080 1.989814 0.297325
v 0.453080 1.989814 0.998577
v 0.453080 1.989814 0.851368
v 0.453080 1.989814 1.553838
v 0.453080 1.989814 1.404194
v 0.453080 1.989814 2.109662
v 0.453080 1.989814 1.956457
v -1.132612 1.989814 1.956457
v -1.132612 1.989814 2.109663
v -1.132612 1.989814 1.404194
v -1.132612 1.989814 1.553838
v -1.132612 1.989814 0.851368
v -1.132612 1.989814 0.998577
v -1.132612 1.989814 0.297325
v -1.132612 1.989814 0.444534
v -1.132612 1.989814 -0.257936
v -1.132612 1.989814 -0.108292
v -1.132612 1.989814 -0.813760
v -1.132612 1.989814 -0.660555
v 0.445085 1.737449 2.108837
v 0.445085 1.737449 1.957283
v 0.445085 1.737449 1.553452
v 0.445085 1.737449 1.404581
v 0.445085 1.737449 0.998527
v 0.445085 1.737449 0.851418
v 0.445085 1.737449 0.444484
v 0.445085 1.737449 0.297375
v 0.445085 1.737449 -0.108679
v 0.445085 1.737449 -0.257550
v 0.445085 1.737449 -0.661381
v 0.445085 1.737449 -0.812935
v 0.445085 0.375143 -0.812757
v 0.445085 0.375143 -0.661558
v 0.445085 0.375143 -0.257463
v 0.445085 0.375143 -0.108765
v 0.445085 0.375143 0.297386
v 0.445085 0.375143 0.444472
v 0.445085 0.375143 0.851430
v 0.445085 0.375143 0.998516
v 0.445085 0.375143 1.404668
v 0.445085 0.375143 1.553365
v 0.445085 0.375143 1.957461
v 0.445085 0.375143 2.108659
v -1.124617 1.737449 -0.812935
v -1.124617 1.737449 -0.661381
v -1.124617 1.737449 -0.257550
v -1.124617 1.737449 -0.108679
v -1.124617 1.737449 0.297375
v -1.124617 1.737449 0.444484
v -1.124617 1.737449 0.851418
v -1.124617 1.737449 0.998527
v -1.124617 1.737449 1.404581
v -1.124617 1.737449 1.553452
v -1.124617 1.737449 1.957283
v -1.124617 1.737449 2.108837
v -1.124617 0.375143 2.108659
v -1.124617 0.375143 1.957461
v -1.124617 0.375143 1.553365
v -1.124617 0.375143 1.404668
v -1.124617 0.375143 0.998516
v -1.124617 0.375143 0.851430
v -1.124617 0.375143 0.444472
v -1.124617 0.375143 0.297386
v -1.124617 0.375143 -0.108766
v -1.124617 0.375143 -0.257463
v -1.124617 0.375143 -0.661558
v -1.124617 0.375143 -0.812757
v -1.132612 1.855636 2.109427
v -1.132612 1.855636 1.956692
v -1.132612 1.855636 1.553735
v -1.132612 1.855636 1.404297
v -1.132612 1.855636 0.998564
v -1.132612 1.855636 0.851381
v -1.132612 1.855636 0.444521
v -1.132612 1.855636 0.297338
v -1.132612 1.855636 -0.108395
v -1.132612 1.855636 -0.257833
v -1.132612 1.855636 -0.660790
v -1.132612 1.855636 -0.813525
v 0.453080 1.855636 -0.813525
v 0.453080 1.855636 -0.660790
v 0.453080 1.855636 -0.257833
v 0.453080 1.855636 -0.108395
v 0.453080 1.855636 0.297338
v 0.453080 1.855636 0.444521
v 0.453080 1.855636 0.851381
v 0.453080 1.855636 0.998564
v 0.453080 1.855636 1.404297
v 0.453080 1.855636 1.553735
v 0.453080 1.855636 1.956692
v 0.453080 1.855636 2.109427
v -1.148154 1.814647 -0.659293
v 0.468622 1.814647 -0.659293
v 0.468622 1.814647 -0.815022
v -1.148154 1.814647 -0.815022
v -1.148154 1.814647 -0.106931
v 0.468622 1.814647 -0.106930
v 0.468622 1.814647 -0.259298
v -1.148154 1.814647 -0.259298
v -1.148154 1.814647 0.445963
v 0.468622 1.814647 0.445964
v 0.468622 1.814647 0.295895
v -1.148154 1.814647 0.295895
v -1.148154 1.814647 1.000007
v 0.468622 1.814647 1.000007
v 0.468622 1.814647 0.849939
v -1.148154 1.814647 0.849939
v -1.148154 1.814647 1.555200
v 0.468622 1.814647 1.555200
v 0.468622 1.814647 1.402833
v -1.148154 1.814647 1.402833
v -1.148154 1.814647 2.110924
v 0.468622 1.814647 2.110924
v 0.468622 1.814647 1.955195
v -1.148154 1.814647 1.955195
v -1.083628 1.750801 1.955797
v -1.083628 0.361791 1.955979
v -1.083628 0.361791 2.110141
v -1.083628 1.750801 2.110322
v -1.083628 1.750801 1.403122
v -1.083628 0.361791 1.403210
v -1.083628 0.361791 1.554822
v -1.083628 1.750801 1.554911
v -1.083628 1.750801 0.849976
v -1.083628 0.361791 0.849988
v -1.083628 0.361791 0.999957
v -1.083628 1.750801 0.999969
v -1.083628 1.750801 0.295933
v -1.083628 0.361791 0.295945
v -1.083628 0.361791 0.445914
v -1.083628 1.750801 0.445926
v -1.083628 1.750801 -0.259009
v -1.083628 0.361791 -0.258920
v -1.083628 0.361791 -0.107308
v -1.083628 1.750801 -0.107219
v -1.083628 1.750801 -0.814420
v -1.083628 0.361791 -0.814239
v -1.083628 0.361791 -0.660077
v -1.083628 1.750801 -0.659895
v 0.404096 1.750801 -0.659895
v 0.404096 0.361791 -0.660077
v 0.404096 0.361791 -0.814239
v 0.404096 1.750801 -0.814420
v 0.404096 1.750801 -0.107220
v 0.404096 0.361791 -0.107308
v 0.404096 0.361791 -0.258920
v 0.404096 1.750801 -0.259009
v 0.404096 1.750801 0.445926
v 0.404096 0.361791 0.445914
v 0.404096 0.361791 0.295945
v 0.404096 1.750801 0.295933
v 0.404096 1.750801 0.999969
v 0.404096 0.361791 0.999957
v 0.404096 0.361791 0.849988
v 0.404096 1.750801 0.849976
v 0.404096 1.750801 1.554911
v 0.404096 0.361791 1.554822
v 0.404096 0.361791 1.403210
v 0.404096 1.750801 1.403122
v 0.404096 1.750801 2.110322
v 0.404096 0.361791 2.110141
v 0.404096 0.361791 1.955979
v 0.404096 1.750801 1.955797
vn -1.0000 -0.0000 -0.0000
vn 1.0000 -0.0000 -0.0000
vn -0.0000 -0.0000 1.0000
vn -0.0000 -0.0000 -1.0000
vn -0.0000 1.0000 -0.0000
vn -0.0000 -1.0000 -0.0000
vn -0.0000 -0.0365 -0.9993
vn -0.9350 -0.3545 -0.0000
vn -0.0000 -0.0365 0.9993
vn 0.9350 -0.3545 -0.0000
vn -0.0000 -0.0357 -0.9994
vn -0.0000 -0.0357 0.9994
vn -0.0000 -0.0352 -0.9994
vn -0.0000 -0.0352 0.9994
vn 0.0362 0.0001 0.9993
vn 0.3097 0.9508 -0.0000
vn 0.0362 0.0001 -0.9993
vn 0.3097 -0.9508 -0.0000
vn 0.0356 0.0001 0.9994
vn 0.0356 0.0001 -0.9994
vn 0.0352 -0.0000 0.9994
vn 0.0351 -0.0000 -0.9994
vn -0.0362 0.0001 -0.9993
vn -0.3097 0.9508 -0.0000
vn -0.0362 0.0001 0.9993
vn -0.3097 -0.9508 -0.0000
vn -0.0356 0.0001 -0.9994
vn -0.0356 0.0001 0.9994
vn -0.0351 -0.0000 -0.9994
vn -0.0352 -0.0000 0.9994
vt 0.375000 0.459711
vt 0.375000 0.433070
vt 0.408792 0.429797
vt 0.408792 0.454256
vt 0.375000 0.750000
vt 0.625000 0.750000
vt 0.591208 0.757637
vt 0.408792 0.757637
vt 0.375000 1.000000
vt 0.375000 0.968861
vt 0.408792 0.963406
vt 0.408792 0.992363
vt 0.625000 1.000000
vt 0.591208 0.992363
vt 0.625000 0.250000
vt 0.625000 0.281078
vt 0.591208 0.286561
vt 0.591208 0.257637
vt 0.375000 0.000000
vt 0.625000 0.000000
vt 0.591208 0.017163
vt 0.408792 0.017163
vt 0.591208 0.232837
vt 0.375000 0.250000
vt 0.408792 0.232838
vt 0.375000 0.500000
vt 0.625000 0.500000
vt 0.591208 0.517163
vt 0.408792 0.517163
vt 0.591208 0.732838
vt 0.408792 0.732837
vt 0.408792 0.257637
vt 0.408792 0.963406
vt 0.408792 0.492363
vt 0.591208 0.492363
vt 0.625000 0.781078
vt 0.591208 0.786561
vt 0.625000 0.505651
vt 0.625000 0.713801
vt 0.625000 0.290351
vt 0.625000 0.316901
vt 0.591208 0.320186
vt 0.591208 0.295778
vt 0.625000 0.036199
vt 0.625000 0.244349
vt 0.625000 0.790351
vt 0.625000 0.816901
vt 0.591208 0.820186
vt 0.591208 0.795778
vt 0.408792 0.929798
vt 0.591208 0.929803
vt 0.591208 0.954244
vt 0.408792 0.954255
vt 0.591208 0.820197
vt 0.591208 0.795755
vt 0.591208 0.795778
vt 0.408792 0.929797
vt 0.408792 0.929798
vt 0.408792 0.954255
vt 0.408792 0.954256
vt 0.408792 0.429798
vt 0.591208 0.429803
vt 0.591208 0.454245
vt 0.408792 0.454255
vt 0.591208 0.320186
vt 0.591208 0.320196
vt 0.591208 0.295755
vt 0.591208 0.295778
vt 0.408792 0.454255
vt 0.625000 0.216745
vt 0.625000 0.313973
vt 0.625000 0.286823
vt 0.625000 0.146342
vt 0.408792 0.963406
vt 0.591208 0.963417
vt 0.625000 0.276533
vt 0.625000 0.276517
vt 0.625000 0.603617
vt 0.625000 0.603658
vt 0.625000 0.533255
vt 0.625000 0.533273
vt 0.625000 0.507128
vt 0.625000 0.507146
vt 0.625000 0.436258
vt 0.625000 0.436260
vt 0.625000 0.410540
vt 0.625000 0.410543
vt 0.625000 0.339457
vt 0.625000 0.339460
vt 0.625000 0.313740
vt 0.625000 0.313742
vt 0.625000 0.242854
vt 0.625000 0.242872
vt 0.625000 0.216727
vt 0.625000 0.216745
vt 0.625000 0.146383
vt 0.625000 0.119615
vt 0.625000 0.119656
vt 0.625000 0.286839
vt 0.625000 0.313973
vt 0.625000 0.313966
vt 0.625000 0.324048
vt 0.625000 0.324041
vt 0.625000 0.351377
vt 0.625000 0.351376
vt 0.625000 0.361295
vt 0.625000 0.361294
vt 0.625000 0.388706
vt 0.625000 0.388705
vt 0.625000 0.398624
vt 0.625000 0.398623
vt 0.625000 0.425959
vt 0.625000 0.425952
vt 0.625000 0.436034
vt 0.625000 0.436027
vt 0.625000 0.463177
vt 0.625000 0.463161
vt 0.625000 0.473483
vt 0.625000 0.473467
vt 0.625000 0.630344
vt 0.625000 0.603658
vt 0.625000 0.436027
vt 0.625000 0.533255
vt 0.625000 0.436258
vt 0.625000 0.313742
vt 0.625000 0.242854
vt 0.591208 0.286561
vt 0.591208 0.286583
vt 0.408792 0.286594
vt 0.408792 0.286594
vt 0.408792 0.295744
vt 0.408792 0.295745
vt 0.408792 0.320202
vt 0.408792 0.320203
vt 0.408792 0.329201
vt 0.408792 0.329201
vt 0.408792 0.353783
vt 0.408792 0.353783
vt 0.408792 0.362685
vt 0.408792 0.362685
vt 0.408792 0.387315
vt 0.408792 0.387315
vt 0.408792 0.396217
vt 0.408792 0.396217
vt 0.408792 0.420799
vt 0.408792 0.420799
vt 0.625000 0.630385
vt 0.591208 0.463417
vt 0.591208 0.463439
vt 0.591208 0.454222
vt 0.591208 0.454244
vt 0.591208 0.429803
vt 0.591208 0.429814
vt 0.591208 0.420783
vt 0.591208 0.420793
vt 0.591208 0.396218
vt 0.591208 0.396219
vt 0.591208 0.387313
vt 0.591208 0.387314
vt 0.591208 0.362686
vt 0.591208 0.362687
vt 0.591208 0.353781
vt 0.591208 0.353782
vt 0.591208 0.329207
vt 0.591208 0.329217
vt 0.625000 0.119656
vt 0.591208 0.286583
vt 0.591208 0.320196
vt 0.591208 0.396218
vt 0.591208 0.420793
vt 0.591208 0.786561
vt 0.591208 0.786583
vt 0.408792 0.786594
vt 0.408792 0.786594
vt 0.408792 0.795744
vt 0.408792 0.795745
vt 0.408792 0.820202
vt 0.408792 0.820203
vt 0.408792 0.829200
vt 0.408792 0.829201
vt 0.408792 0.853783
vt 0.408792 0.853783
vt 0.408792 0.862685
vt 0.408792 0.862685
vt 0.408792 0.887315
vt 0.408792 0.887315
vt 0.408792 0.896217
vt 0.408792 0.896217
vt 0.408792 0.920799
vt 0.408792 0.920799
vt 0.408792 0.463406
vt 0.408792 0.463406
vt 0.591208 0.963439
vt 0.591208 0.954222
vt 0.591208 0.929803
vt 0.591208 0.929814
vt 0.591208 0.920783
vt 0.591208 0.920793
vt 0.591208 0.896218
vt 0.591208 0.896219
vt 0.591208 0.887313
vt 0.591208 0.887314
vt 0.591208 0.862686
vt 0.591208 0.862687
vt 0.591208 0.853781
vt 0.591208 0.853782
vt 0.591208 0.829207
vt 0.591208 0.829217
vt 0.591208 0.463417
vt 0.591208 0.786583
vt 0.408792 0.795745
vt 0.591208 0.795756
vt 0.591208 0.820197
vt 0.408792 0.820202
vt 0.408792 0.853783
vt 0.591208 0.887314
vt 0.591208 0.896218
vt 0.625000 0.968922
vt 0.591208 0.963439
vt 0.625000 0.093234
vt 0.625000 0.119615
vt 0.625000 0.933099
vt 0.625000 0.959649
vt 0.591208 0.954222
vt 0.625000 0.897312
vt 0.625000 0.924044
vt 0.591208 0.920783
vt 0.625000 0.861597
vt 0.625000 0.888402
vt 0.591208 0.887313
vt 0.625000 0.825956
vt 0.625000 0.852688
vt 0.591208 0.853781
vt 0.591208 0.829217
vt 0.625000 0.468922
vt 0.625000 0.433099
vt 0.625000 0.459649
vt 0.591208 0.454222
vt 0.591208 0.429814
vt 0.625000 0.397312
vt 0.625000 0.424044
vt 0.591208 0.420783
vt 0.625000 0.361597
vt 0.625000 0.388402
vt 0.591208 0.362687
vt 0.625000 0.325956
vt 0.625000 0.352688
vt 0.308070 0.500000
vt 0.334711 0.500000
vt 0.334711 0.750000
vt 0.308070 0.750000
vt 0.272308 0.500000
vt 0.299073 0.500000
vt 0.299073 0.750000
vt 0.272308 0.750000
vt 0.236594 0.500000
vt 0.263406 0.500000
vt 0.263406 0.750000
vt 0.236594 0.750000
vt 0.200927 0.500000
vt 0.227692 0.500000
vt 0.227692 0.750000
vt 0.200927 0.750000
vt 0.165289 0.500000
vt 0.191930 0.500000
vt 0.191930 0.750000
vt 0.165289 0.750000
vt 0.125000 0.500000
vt 0.156139 0.500000
vt 0.156139 0.750000
vt 0.125000 0.750000
vt 0.625000 0.313966
vt 0.625000 0.324048
vt 0.625000 0.388402
vt 0.625000 0.388705
vt 0.625000 0.397312
vt 0.625000 0.398624
vt 0.625000 0.425952
vt 0.625000 0.436034
vt 0.625000 0.463161
vt 0.375000 0.959711
vt 0.375000 0.933070
vt 0.375000 0.924073
vt 0.375000 0.897308
vt 0.375000 0.888406
vt 0.375000 0.861594
vt 0.408792 0.887315
vt 0.375000 0.852692
vt 0.375000 0.825927
vt 0.408792 0.829201
vt 0.408792 0.853783
vt 0.375000 0.816930
vt 0.375000 0.790289
vt 0.375000 0.781139
vt 0.408792 0.786594
vt 0.625000 0.656766
vt 0.625000 0.549297
vt 0.625000 0.628948
vt 0.625000 0.603617
vt 0.625000 0.441935
vt 0.625000 0.522132
vt 0.625000 0.436260
vt 0.625000 0.334792
vt 0.625000 0.415208
vt 0.625000 0.410540
vt 0.625000 0.227868
vt 0.625000 0.308065
vt 0.625000 0.313740
vt 0.625000 0.242872
vt 0.625000 0.121052
vt 0.625000 0.200703
vt 0.375000 0.281139
vt 0.375000 0.316930
vt 0.375000 0.290289
vt 0.408792 0.295744
vt 0.408792 0.320203
vt 0.375000 0.352692
vt 0.375000 0.325927
vt 0.408792 0.329201
vt 0.375000 0.388406
vt 0.375000 0.361594
vt 0.408792 0.362685
vt 0.375000 0.424073
vt 0.375000 0.397308
vt 0.408792 0.396217
vt 0.408792 0.420799
vt 0.343861 0.500000
vt 0.343861 0.750000
vt 0.408792 0.463406
vt 0.375000 0.468861
s 0
usemtl Kont
f 50/1/1 51/2/1 123/3/1 122/4/1
f 4/5/2 3/6/2 10/7/2 9/8/2
f 8/9/2 73/10/2 97/11/2 12/12/2
f 7/13/2 8/9/2 12/12/2 11/14/2
f 5/15/1 86/16/1 133/17/1 22/18/1
f 8/19/3 7/20/3 14/21/3 13/22/3
f 7/20/3 5/15/3 15/23/3 14/21/3
f 5/15/3 6/24/3 16/25/3 15/23/3
f 6/24/3 8/19/3 13/22/3 16/25/3
f 2/26/4 1/27/4 18/28/4 17/29/4
f 1/27/4 3/6/4 19/30/4 18/28/4
f 3/6/4 4/5/4 20/31/4 19/30/4
f 4/5/4 2/26/4 17/29/4 20/31/4
f 6/24/1 5/15/1 22/18/1 21/32/1
f 97/11/5 192/33/5 32/12/5 12/12/5
f 1/27/1 2/26/1 24/34/1 23/35/1
f 3/6/2 62/36/2 109/37/2 10/7/2
f 3/6/5 1/27/5 26/38/5 25/39/5
f 85/40/1 88/41/1 135/42/1 134/43/1
f 5/15/5 7/20/5 28/44/5 27/45/5
f 61/46/2 64/47/2 111/48/2 110/49/2
f 190/50/2 171/51/2 170/52/2 191/53/2
f 10/7/3 30/7/3 29/8/3 9/8/3
f 111/48/6 178/54/6 179/55/6 110/56/6
f 12/12/4 32/12/4 31/14/4 11/14/4
f 99/57/5 190/58/5 191/59/5 98/60/5
f 33/22/3 34/21/3 35/23/3 36/25/3
f 14/21/1 34/21/1 33/22/1 13/22/1
f 15/23/6 35/23/6 34/21/6 14/21/6
f 16/25/2 36/25/2 35/23/2 15/23/2
f 13/22/5 33/22/5 36/25/5 16/25/5
f 37/29/4 38/28/4 39/30/4 40/31/4
f 18/28/2 38/28/2 37/29/2 17/29/2
f 19/30/6 39/30/6 38/28/6 18/28/6
f 20/31/1 40/31/1 39/30/1 19/30/1
f 17/29/5 37/29/5 40/31/5 20/31/5
f 214/61/1 195/62/1 194/63/1 215/64/1
f 22/18/4 42/18/4 41/32/4 21/32/4
f 135/65/6 202/66/6 203/67/6 134/68/6
f 24/34/3 44/34/3 43/35/3 23/35/3
f 123/3/5 214/61/5 215/69/5 122/4/5
f 238/70/5 219/71/5 218/72/5 239/73/5
f 26/38/3 46/38/3 45/39/3 25/39/3
f 192/74/2 169/75/2 31/14/2 32/12/2
f 28/44/4 48/44/4 47/45/4 27/45/4
f 27/45/2 47/45/2 217/76/2 158/77/2
f 145/78/1 230/79/1 231/80/1 148/81/1
f 147/82/1 232/83/1 233/84/1 150/85/1
f 149/86/1 234/87/1 235/88/1 152/89/1
f 151/90/1 236/91/1 237/92/1 154/93/1
f 153/94/1 238/95/1 239/73/1 156/96/1
f 155/97/1 240/98/1 48/44/1 28/44/1
f 157/99/2 218/72/2 219/100/2 160/101/2
f 159/102/2 220/103/2 221/104/2 162/105/2
f 161/106/2 222/107/2 223/108/2 164/109/2
f 163/110/2 224/111/2 225/112/2 166/113/2
f 165/114/2 226/115/2 227/116/2 168/117/2
f 167/118/2 228/119/2 46/38/2 26/38/2
f 45/39/5 46/38/5 228/119/5 229/120/5
f 230/121/5 227/116/5 226/122/5 231/123/5
f 232/83/5 225/112/5 224/111/5 233/124/5
f 234/87/5 223/108/5 222/107/5 235/88/5
f 236/125/5 221/104/5 220/103/5 237/126/5
f 133/127/6 204/128/6 42/18/6 22/18/6
f 21/32/5 41/32/5 205/129/5 132/130/5
f 131/131/5 206/132/5 207/133/5 130/134/5
f 129/135/5 208/136/5 209/137/5 128/138/5
f 127/139/5 210/140/5 211/141/5 126/142/5
f 125/143/5 212/144/5 213/145/5 124/146/5
f 25/39/1 45/39/1 229/120/1 146/147/1
f 23/35/6 43/35/6 193/148/6 144/149/6
f 143/150/6 194/151/6 195/152/6 142/153/6
f 141/154/6 196/155/6 197/156/6 140/157/6
f 139/158/6 198/159/6 199/160/6 138/161/6
f 137/162/6 200/163/6 201/164/6 136/165/6
f 240/166/5 217/76/5 47/45/5 48/44/5
f 41/32/1 42/18/1 204/167/1 205/129/1
f 206/132/1 203/67/1 202/168/1 207/133/1
f 208/136/1 201/164/1 200/163/1 209/137/1
f 210/140/1 199/160/1 198/159/1 211/141/1
f 212/144/1 197/169/1 196/170/1 213/145/1
f 109/171/6 180/172/6 30/7/6 10/7/6
f 9/8/5 29/8/5 181/173/5 108/174/5
f 107/175/5 182/176/5 183/177/5 106/178/5
f 105/179/5 184/180/5 185/181/5 104/182/5
f 103/183/5 186/184/5 187/185/5 102/186/5
f 101/187/5 188/188/5 189/189/5 100/190/5
f 121/191/5 216/192/5 44/34/5 24/34/5
f 11/14/6 31/14/6 169/75/6 120/193/6
f 119/194/6 170/52/6 171/195/6 118/196/6
f 117/197/6 172/198/6 173/199/6 116/200/6
f 115/201/6 174/202/6 175/203/6 114/204/6
f 113/205/6 176/206/6 177/207/6 112/208/6
f 216/192/1 193/209/1 43/35/1 44/34/1
f 29/8/2 30/7/2 180/210/2 181/173/2
f 182/211/2 179/212/2 178/213/2 183/214/2
f 184/180/2 177/207/2 176/206/2 185/215/2
f 186/184/2 175/203/2 174/216/2 187/185/2
f 188/188/2 173/217/2 172/198/2 189/189/2
f 71/218/2 7/13/2 11/14/2 120/219/2
f 7/20/5 71/220/5 155/221/5 28/44/5
f 69/222/2 72/223/2 119/224/2 118/196/2
f 67/225/2 70/226/2 117/227/2 116/200/2
f 65/228/2 68/229/2 115/230/2 114/204/2
f 63/231/2 66/232/2 113/233/2 112/234/2
f 95/235/1 1/27/1 23/35/1 144/149/1
f 1/27/5 95/235/5 167/118/5 26/38/5
f 93/236/1 96/237/1 143/238/1 142/239/1
f 91/240/1 94/241/1 141/242/1 140/157/1
f 89/243/1 92/244/1 139/158/1 138/245/1
f 87/246/1 90/247/1 137/162/1 136/165/1
f 51/248/6 50/249/6 83/250/6 82/251/6
f 53/252/6 52/253/6 81/254/6 80/255/6
f 55/256/6 54/257/6 79/258/6 78/259/6
f 57/260/6 56/261/6 77/262/6 76/263/6
f 59/264/6 58/265/6 75/266/6 74/267/6
f 6/268/6 60/269/6 73/270/6 8/271/6
f 86/16/5 5/15/5 27/45/5 158/77/5
f 88/41/5 85/40/5 157/99/5 160/272/5
f 90/247/5 87/246/5 159/273/5 162/105/5
f 92/274/5 89/243/5 161/106/5 164/275/5
f 94/241/5 91/276/5 163/277/5 166/278/5
f 96/237/5 93/236/5 165/279/5 168/280/5
f 74/281/2 75/282/2 99/57/2 98/60/2
f 76/283/2 77/284/2 101/187/2 100/190/2
f 78/285/2 79/286/2 103/183/2 102/287/2
f 80/288/2 81/289/2 105/290/2 104/291/2
f 82/292/2 83/293/2 107/175/2 106/178/2
f 84/294/2 4/5/2 9/8/2 108/295/2
f 62/296/5 3/6/5 25/39/5 146/147/5
f 64/297/5 61/298/5 145/299/5 148/81/5
f 66/300/5 63/301/5 147/82/5 150/302/5
f 68/303/5 65/304/5 149/305/5 152/89/5
f 70/306/5 67/307/5 151/308/5 154/309/5
f 72/310/5 69/311/5 153/94/5 156/96/5
f 60/312/1 6/24/1 21/32/1 132/130/1
f 58/313/1 59/314/1 131/315/1 130/316/1
f 56/317/1 57/318/1 129/319/1 128/138/1
f 54/320/1 55/321/1 127/322/1 126/142/1
f 52/323/1 53/324/1 125/325/1 124/326/1
f 49/327/6 2/26/6 4/5/6 84/328/6
f 230/79/1 145/78/1 146/147/1 229/120/1
f 232/83/1 147/82/1 148/81/1 231/80/1
f 234/87/1 149/86/1 150/85/1 233/84/1
f 236/91/1 151/90/1 152/89/1 235/88/1
f 238/95/1 153/94/1 154/93/1 237/92/1
f 240/98/1 155/97/1 156/96/1 239/73/1
f 218/72/2 157/99/2 158/77/2 217/76/2
f 220/103/2 159/102/2 160/101/2 219/100/2
f 222/107/2 161/106/2 162/105/2 221/104/2
f 224/111/2 163/110/2 164/109/2 223/108/2
f 226/115/2 165/114/2 166/113/2 225/112/2
f 228/119/2 167/118/2 168/117/2 227/116/2
f 206/132/5 131/131/5 132/130/5 205/129/5
f 208/136/5 129/135/5 130/134/5 207/133/5
f 210/140/5 127/139/5 128/138/5 209/137/5
f 212/144/5 125/143/5 126/142/5 211/141/5
f 214/61/5 123/3/5 124/146/5 213/145/5
f 216/192/5 121/191/5 122/4/5 215/69/5
f 194/151/6 143/150/6 144/149/6 193/148/6
f 196/155/6 141/154/6 142/153/6 195/152/6
f 198/159/6 139/158/6 140/157/6 197/156/6
f 200/163/6 137/162/6 138/161/6 199/160/6
f 202/66/6 135/65/6 136/165/6 201/164/6
f 204/128/6 133/127/6 134/68/6 203/67/6
f 182/176/5 107/175/5 108/174/5 181/173/5
f 184/180/5 105/179/5 106/178/5 183/177/5
f 186/184/5 103/183/5 104/182/5 185/181/5
f 188/188/5 101/187/5 102/186/5 187/185/5
f 190/58/5 99/57/5 100/190/5 189/189/5
f 192/33/5 97/11/5 98/60/5 191/59/5
f 170/52/6 119/194/6 120/193/6 169/75/6
f 172/198/6 117/197/6 118/196/6 171/195/6
f 174/202/6 115/201/6 116/200/6 173/199/6
f 176/206/6 113/205/6 114/204/6 175/203/6
f 178/54/6 111/48/6 112/208/6 177/207/6
f 180/172/6 109/171/6 110/56/6 179/55/6
f 72/310/5 156/96/5 155/221/5 71/220/5
f 70/306/5 154/309/5 153/94/5 69/311/5
f 68/303/5 152/89/5 151/308/5 67/307/5
f 66/300/5 150/302/5 149/305/5 65/304/5
f 64/297/5 148/81/5 147/82/5 63/301/5
f 62/296/5 146/147/5 145/299/5 61/298/5
f 96/237/5 168/280/5 167/118/5 95/235/5
f 94/241/5 166/278/5 165/279/5 93/236/5
f 92/274/5 164/275/5 163/277/5 91/276/5
f 90/247/5 162/105/5 161/106/5 89/243/5
f 88/41/5 160/272/5 159/273/5 87/246/5
f 86/16/5 158/77/5 157/99/5 85/40/5
f 50/1/1 122/4/1 121/329/1 49/330/1
f 52/323/1 124/326/1 123/3/1 51/2/1
f 54/320/1 126/142/1 125/325/1 53/324/1
f 56/317/1 128/138/1 127/322/1 55/321/1
f 58/313/1 130/316/1 129/319/1 57/318/1
f 60/312/1 132/130/1 131/315/1 59/314/1
f 85/40/1 134/43/1 133/17/1 86/16/1
f 87/246/1 136/165/1 135/42/1 88/41/1
f 89/243/1 138/245/1 137/162/1 90/247/1
f 91/240/1 140/157/1 139/158/1 92/244/1
f 93/236/1 142/239/1 141/242/1 94/241/1
f 95/235/1 144/149/1 143/238/1 96/237/1
f 74/281/2 98/60/2 97/11/2 73/10/2
f 76/283/2 100/190/2 99/57/2 75/282/2
f 78/285/2 102/287/2 101/187/2 77/284/2
f 80/288/2 104/291/2 103/183/2 79/286/2
f 82/292/2 106/178/2 105/290/2 81/289/2
f 84/294/2 108/295/2 107/175/2 83/293/2
f 61/46/2 110/49/2 109/37/2 62/36/2
f 63/231/2 112/234/2 111/48/2 64/47/2
f 65/228/2 114/204/2 113/233/2 66/232/2
f 67/225/2 116/200/2 115/230/2 68/229/2
f 69/222/2 118/196/2 117/227/2 70/226/2
f 71/218/2 120/219/2 119/224/2 72/223/2
f 59/264/6 74/267/6 73/270/6 60/269/6
f 57/260/6 76/263/6 75/266/6 58/265/6
f 55/256/6 78/259/6 77/262/6 56/261/6
f 53/252/6 80/255/6 79/258/6 54/257/6
f 51/248/6 82/251/6 81/254/6 52/253/6
f 49/327/6 84/328/6 83/250/6 50/249/6
f 2/26/1 49/330/1 121/329/1 24/34/1
f 241/116/5 242/121/5 243/120/5 244/119/5
f 230/121/7 242/121/7 241/116/7 227/116/7
f 229/120/8 243/120/8 242/121/8 230/121/8
f 228/119/9 244/119/9 243/120/9 229/120/9
f 227/116/10 241/116/10 244/119/10 228/119/10
f 245/112/5 246/83/5 247/123/5 248/122/5
f 232/83/11 246/83/11 245/112/11 225/112/11
f 231/123/8 247/123/8 246/83/8 232/83/8
f 226/122/12 248/122/12 247/123/12 231/123/12
f 225/112/10 245/112/10 248/122/10 226/122/10
f 249/108/5 250/87/5 251/124/5 252/111/5
f 234/87/13 250/87/13 249/108/13 223/108/13
f 233/124/8 251/124/8 250/87/8 234/87/8
f 224/111/14 252/111/14 251/124/14 233/124/14
f 223/108/10 249/108/10 252/111/10 224/111/10
f 253/104/5 254/125/5 255/88/5 256/107/5
f 236/125/13 254/125/13 253/104/13 221/104/13
f 235/88/8 255/88/8 254/125/8 236/125/8
f 222/107/14 256/107/14 255/88/14 235/88/14
f 221/104/10 253/104/10 256/107/10 222/107/10
f 257/71/5 258/70/5 259/126/5 260/103/5
f 238/70/11 258/70/11 257/71/11 219/71/11
f 237/126/8 259/126/8 258/70/8 238/70/8
f 220/103/12 260/103/12 259/126/12 237/126/12
f 219/71/10 257/71/10 260/103/10 220/103/10
f 261/76/5 262/166/5 263/73/5 264/72/5
f 240/166/7 262/166/7 261/76/7 217/76/7
f 239/73/8 263/73/8 262/166/8 240/166/8
f 218/72/9 264/72/9 263/73/9 239/73/9
f 217/76/10 261/76/10 264/72/10 218/72/10
f 265/67/1 266/132/1 267/129/1 268/167/1
f 206/132/15 266/132/15 265/67/15 203/67/15
f 205/129/16 267/129/16 266/132/16 206/132/16
f 204/167/17 268/167/17 267/129/17 205/129/17
f 203/67/18 265/67/18 268/167/18 204/167/18
f 269/164/1 270/136/1 271/133/1 272/168/1
f 208/136/19 270/136/19 269/164/19 201/164/19
f 207/133/16 271/133/16 270/136/16 208/136/16
f 202/168/20 272/168/20 271/133/20 207/133/20
f 201/164/18 269/164/18 272/168/18 202/168/18
f 273/160/1 274/140/1 275/137/1 276/163/1
f 210/140/21 274/140/21 273/160/21 199/160/21
f 209/137/16 275/137/16 274/140/16 210/140/16
f 200/163/22 276/163/22 275/137/22 209/137/22
f 199/160/18 273/160/18 276/163/18 200/163/18
f 277/169/1 278/144/1 279/141/1 280/159/1
f 212/144/21 278/144/21 277/169/21 197/169/21
f 211/141/16 279/141/16 278/144/16 212/144/16
f 198/159/22 280/159/22 279/141/22 211/141/22
f 197/169/18 277/169/18 280/159/18 198/159/18
f 281/62/1 282/61/1 283/145/1 284/170/1
f 214/61/19 282/61/19 281/62/19 195/62/19
f 213/145/16 283/145/16 282/61/16 214/61/16
f 196/170/20 284/170/20 283/145/20 213/145/20
f 195/62/18 281/62/18 284/170/18 196/170/18
f 285/209/1 286/192/1 287/64/1 288/63/1
f 216/192/15 286/192/15 285/209/15 193/209/15
f 215/64/16 287/64/16 286/192/16 216/192/16
f 194/63/17 288/63/17 287/64/17 215/64/17
f 193/209/18 285/209/18 288/63/18 194/63/18
f 289/212/2 290/211/2 291/173/2 292/210/2
f 182/211/23 290/211/23 289/212/23 179/212/23
f 181/173/24 291/173/24 290/211/24 182/211/24
f 180/210/25 292/210/25 291/173/25 181/173/25
f 179/212/26 289/212/26 292/210/26 180/210/26
f 293/207/2 294/180/2 295/214/2 296/213/2
f 184/180/27 294/180/27 293/207/27 177/207/27
f 183/214/24 295/214/24 294/180/24 184/180/24
f 178/213/28 296/213/28 295/214/28 183/214/28
f 177/207/26 293/207/26 296/213/26 178/213/26
f 297/203/2 298/184/2 299/215/2 300/206/2
f 186/184/29 298/184/29 297/203/29 175/203/29
f 185/215/24 299/215/24 298/184/24 186/184/24
f 176/206/30 300/206/30 299/215/30 185/215/30
f 175/203/26 297/203/26 300/206/26 176/206/26
f 301/217/2 302/188/2 303/185/2 304/216/2
f 188/188/29 302/188/29 301/217/29 173/217/29
f 187/185/24 303/185/24 302/188/24 188/188/24
f 174/216/30 304/216/30 303/185/30 187/185/30
f 173/217/26 301/217/26 304/216/26 174/216/26
f 305/51/2 306/50/2 307/189/2 308/198/2
f 190/50/27 306/50/27 305/51/27 171/51/27
f 189/189/24 307/189/24 306/50/24 190/50/24
f 172/198/28 308/198/28 307/189/28 189/189/28
f 171/51/26 305/51/26 308/198/26 172/198/26
f 309/75/2 310/74/2 311/53/2 312/52/2
f 192/74/23 310/74/23 309/75/23 169/75/23
f 191/53/24 311/53/24 310/74/24 192/74/24
f 170/52/25 312/52/25 311/53/25 191/53/25
f 169/75/26 309/75/26 312/52/26 170/52/26
